<?xml version="1.0" standalone="no"?>
<!DOCTYPE svg PUBLIC "-//W3C//DTD SVG 20010904//EN"
 "http://www.w3.org/TR/2001/REC-SVG-20010904/DTD/svg10.dtd">
<svg version="1.0" xmlns="http://www.w3.org/2000/svg"
 width="594.000000pt" height="359.000000pt" viewBox="0 0 594.000000 359.000000"
 preserveAspectRatio="xMidYMid meet">

<g transform="translate(0.000000,359.000000) scale(0.100000,-0.100000)"
fill="#000000" stroke="none">
<path d="M2250 1840 l0 -800 504 0 503 1 6 32 c2 18 4 66 3 107 l-1 75 -392 3
-393 2 0 129 c0 72 -4 141 -10 156 -7 18 -7 24 1 20 6 -4 9 2 8 17 -1 12 -1
65 -1 116 l2 92 303 0 302 0 83 104 c46 58 82 108 80 111 -2 4 -168 6 -369 5
-201 0 -373 2 -382 6 -15 5 -17 28 -17 200 l0 194 393 2 392 3 0 110 0 110
-507 3 -508 2 0 -800z m210 -335 c0 -12 -20 6 -31 28 l-11 22 21 -22 c11 -12
21 -25 21 -28z"/>
<path d="M4000 2625 c-217 -49 -395 -163 -507 -327 -104 -151 -143 -281 -143
-472 1 -232 69 -394 240 -567 85 -86 106 -102 200 -147 150 -73 208 -86 370
-86 118 0 146 4 225 28 257 78 455 267 539 512 128 380 -40 804 -388 979 -50
25 -122 55 -161 66 -95 27 -286 34 -375 14z m290 -231 c101 -23 201 -79 270
-148 94 -96 129 -155 161 -275 51 -197 -6 -399 -155 -547 -76 -75 -129 -109
-228 -145 -84 -30 -264 -33 -348 -5 -95 32 -173 79 -241 146 -118 117 -171
240 -171 405 -1 169 48 291 167 411 54 55 89 80 155 112 47 23 108 45 135 50
77 15 183 13 255 -4z"/>
<path d="M1290 2603 c-92 -16 -246 -82 -320 -137 -162 -121 -279 -312 -314
-511 -20 -112 -20 -157 -1 -265 48 -276 210 -488 461 -601 82 -38 227 -69 319
-69 179 0 397 82 524 196 l61 56 -2 326 -3 327 -342 3 c-328 2 -343 1 -352
-17 -16 -30 -81 -192 -81 -203 0 -5 29 -8 65 -6 36 1 65 7 65 13 0 5 4 4 9 -3
4 -8 14 -13 22 -12 8 1 98 2 202 1 l187 -1 0 -157 c0 -87 -4 -163 -8 -169 -14
-22 -106 -74 -171 -96 -94 -32 -270 -32 -354 1 -178 70 -288 181 -355 359 -32
87 -36 243 -8 337 62 203 220 351 429 400 168 40 350 -12 499 -142 35 -30 62
-59 60 -65 -5 -19 23 -1 35 23 10 19 9 28 -4 49 -16 25 -16 25 4 7 22 -19 39
-12 21 10 -8 11 -7 12 5 7 18 -6 42 30 31 48 -4 7 -3 8 4 4 11 -6 14 0 11 20
0 4 4 10 10 14 21 12 0 40 -71 95 -149 117 -297 166 -492 164 -67 -1 -132 -4
-146 -6z m604 -389 c3 -8 2 -12 -4 -9 -6 3 -10 10 -10 16 0 14 7 11 14 -7z"/>
<path d="M5180 2520 l0 -90 30 0 30 0 0 90 0 90 -30 0 -30 0 0 -90z"/>
<path d="M5180 2170 l0 -90 30 0 30 0 0 90 0 90 -30 0 -30 0 0 -90z"/>
<path d="M5180 1820 l0 -90 29 0 c34 0 38 14 33 118 -4 61 -4 62 -33 62 l-29
0 0 -90z"/>
<path d="M5180 1470 l0 -90 29 0 c27 0 30 3 33 38 2 20 1 61 0 90 -4 50 -5 52
-33 52 l-29 0 0 -90z"/>
<path d="M5180 1120 l0 -90 29 0 c29 0 29 1 33 63 5 103 1 117 -33 117 l-29 0
0 -90z"/>
<path d="M610 855 l0 -35 85 0 85 0 0 35 0 35 -85 0 -85 0 0 -35z"/>
<path d="M900 855 l0 -35 80 0 80 0 0 35 0 35 -80 0 -80 0 0 -35z"/>
<path d="M1190 855 l0 -35 80 0 80 0 0 35 0 35 -80 0 -80 0 0 -35z"/>
<path d="M1480 855 l0 -35 80 0 80 0 0 35 0 35 -80 0 -80 0 0 -35z"/>
<path d="M1760 855 l0 -35 85 0 85 0 0 35 0 35 -51 0 c-44 0 -50 -2 -45 -17 6
-16 6 -16 -12 0 -10 9 -28 17 -40 17 -18 0 -22 -6 -22 -35z"/>
</g>
</svg>
